<svg width="520" height="320" viewBox="0 0 520 320" fill="none" xmlns="http://www.w3.org/2000/svg">
  <defs>
    <linearGradient id="g1" x1="70" y1="50" x2="460" y2="280" gradientUnits="userSpaceOnUse">
      <stop stop-color="#7C5CFF" stop-opacity="0.9"></stop>
      <stop offset="1" stop-color="#33D6A6" stop-opacity="0.8"></stop>
    </linearGradient>
    <filter id="blur" x="-50" y="-50" width="620" height="420" color-interpolation-filters="sRGB">
      <feGaussianBlur stdDeviation="18"></feGaussianBlur>
    </filter>
  </defs>

  <circle cx="120" cy="80" r="55" fill="#7C5CFF" fill-opacity="0.25" filter="url(#blur)"></circle>
  <circle cx="420" cy="120" r="70" fill="#33D6A6" fill-opacity="0.18" filter="url(#blur)"></circle>

  <rect x="86" y="58" width="348" height="214" rx="22" fill="rgba(255,255,255,0.06)" stroke="rgba(255,255,255,0.14)"></rect>
  <rect x="112" y="86" width="140" height="160" rx="16" fill="url(#g1)" fill-opacity="0.35" stroke="rgba(255,255,255,0.20)"></rect>
  <rect x="270" y="92" width="140" height="20" rx="10" fill="rgba(255,255,255,0.10)"></rect>
  <rect x="270" y="126" width="120" height="14" rx="7" fill="rgba(255,255,255,0.08)"></rect>
  <rect x="270" y="150" width="132" height="14" rx="7" fill="rgba(255,255,255,0.08)"></rect>
  <rect x="270" y="174" width="98" height="14" rx="7" fill="rgba(255,255,255,0.08)"></rect>
  <rect x="270" y="214" width="110" height="18" rx="9" fill="rgba(51,214,166,0.18)" stroke="rgba(51,214,166,0.35)"></rect>

  <path d="M142 112h80" stroke="rgba(255,255,255,0.35)" stroke-width="10" stroke-linecap="round"></path>
  <path d="M142 140h64" stroke="rgba(255,255,255,0.28)" stroke-width="10" stroke-linecap="round"></path>
  <path d="M142 168h72" stroke="rgba(255,255,255,0.28)" stroke-width="10" stroke-linecap="round"></path>
  <path d="M142 196h54" stroke="rgba(255,255,255,0.24)" stroke-width="10" stroke-linecap="round"></path>

  <path d="M455 64l6 14 14 6-14 6-6 14-6-14-14-6 14-6 6-14z" fill="rgba(124,92,255,0.55)"></path>
  <path d="M70 232l5 12 12 5-12 5-5 12-5-12-12-5 12-5 5-12z" fill="rgba(51,214,166,0.55)"></path>
</svg>
